#!OML:ASF H:\GeneralSubjects\Female5\Project 1\Capture day 1\Session 1\Female5.ASF
:FULLY-SPECIFIED
:DEGREES
993
root -36.0396 16.2973 0.487491 -167.657 3.02942 -177.711
lowerback 4.54078 -0.196874 1.13429
upperback -9.9483 1.08757 2.7231
thorax -13.4236 0.968624 2.08906
lowerneck -16.0179 0.833705 5.49711
upperneck 27.6124 0.923934 0.242142
head 11.7131 1.56745 -0.600362
rclavicle 1.98785e-016 1.59028e-015
rhumerus -55.3669 11.8002 -79.4333
rradius 34.403
rwrist -17.3087
rhand -31.5951 -19.4713
rfingers 7.12502
rthumb -4.85782 -49.3956
lclavicle 1.98785e-016 1.59028e-015
lhumerus -43.7794 1.06897 78.4618
lradius 31.3694
lwrist -3.05026
lhand -26.6617 26.4127
lfingers 7.12502
lthumb -0.0933336 56.3924
rfemur 0.524452 30.0798 34.5498
rtibia -9.44269
rfoot -23.568 -27.9021
rtoes 9.14179
lfemur -1.72242 -43.4611 -26.4226
ltibia -3.653
lfoot -40.4988 -1.85477
ltoes -17.5436
994
root -36.0428 16.2982 0.483407 -167.655 2.91815 -177.649
lowerback 4.53871 -0.181146 1.06732
upperback -9.9521 1.11268 2.77557
thorax -13.4305 0.99336 2.17994
lowerneck -15.9976 0.808488 5.14571
upperneck 27.7993 0.93824 0.541636
head 11.7785 1.59295 -0.423483
rclavicle -3.77691e-015 1.27222e-014
rhumerus -55.1749 11.9278 -79.8216
rradius 33.7993
rwrist -16.5657
rhand -30.6494 -20.1813
rfingers 7.12502
rthumb -3.94462 -50.1246
lclavicle -3.77691e-015 1.27222e-014
lhumerus -44.0735 1.23785 78.4172
lradius 31.3283
lwrist -2.99025
lhand -26.599 26.5891
lfingers 7.12502
lthumb -0.0327972 56.5688
rfemur 0.504199 29.9771 34.5926
rtibia -9.46557
rfoot -22.866 -28.4615
rtoes 7.0249
lfemur -1.73188 -43.6396 -26.3529
ltibia -3.73931
lfoot -40.5753 -1.7663
ltoes -15.8146
995
root -36.0456 16.2991 0.478845 -167.588 2.77512 -177.573
lowerback 4.43603 -0.175717 0.98113
upperback -9.96364 1.12967 2.86253
thorax -13.3844 1.02145 2.32064
lowerneck -15.9795 0.777771 4.63129
upperneck 27.9713 0.934643 1.03564
head 11.8366 1.61786 -0.148445
rclavicle -6.95746e-016 3.18055e-015
rhumerus -55.2984 12.9436 -80.7264
rradius 33.714
rwrist -16.539
rhand -30.4065 -21.1087
rfingers 7.12502
rthumb -3.70998 -51.0562
lclavicle -6.95746e-016 3.18055e-015
lhumerus -44.392 1.42816 78.3668
lradius 31.3646
lwrist -3.01451
lhand -25.9377 26.4168
lfingers 7.12502
lthumb 0.605958 56.3957
rfemur 0.370731 29.856 34.5851
rtibia -9.40591
rfoot -23.0633 -28.3625
rtoes 7.56927
lfemur -1.81928 -44.0876 -26.1946
ltibia -3.89773
lfoot -40.8457 -1.72519
ltoes -12.5389
996
root -36.0457 16.2999 0.474545 -167.552 2.64252 -177.569
lowerback 4.43309 -0.148476 0.759935
upperback -10.0212 1.16945 2.94038
thorax -13.4592 1.0764 2.52353
lowerneck -16.0632 0.701725 4.43639
upperneck 28.2368 0.867626 1.19008
head 11.9544 1.60806 -0.0607857
rclavicle -1.05356e-014 1.51076e-014
rhumerus -55.5614 13.5244 -81.514
rradius 33.7251
rwrist -16.1223
rhand -30.6226 -21.4979
rfingers 7.12502
rthumb -3.91872 -51.4416
lclavicle -1.05356e-014 1.51076e-014
lhumerus -44.7678 1.70449 78.2658
lradius 31.3189
lwrist -3.1854
lhand -23.3723 24.3323
lfingers 7.12502
lthumb 3.08361 54.2898
rfemur 0.307334 29.7463 34.6008
rtibia -9.32056
rfoot -23.9638 -27.7928
rtoes 10.2165
lfemur -1.86339 -43.9491 -26.128
ltibia -4.03647
lfoot -40.6212 -1.63266
ltoes -11.1428
997
root -36.0466 16.2998 0.468616 -167.509 2.48693 -177.615
lowerback 4.45528 -0.145794 0.597805
upperback -10.1193 1.17946 2.95054
thorax -13.5939 1.1084 2.62367
lowerneck -15.9981 0.555133 4.89496
upperneck 28.3066 0.84285 0.129633
head 11.9702 1.51153 -0.539666
rclavicle -6.55989e-015 1.59028e-014
rhumerus -55.7312 13.8425 -82.1075
rradius 33.5218
rwrist -15.6463
rhand -30.3385 -21.0479
rfingers 7.12502
rthumb -3.64433 -50.9965
lclavicle -6.55989e-015 1.59028e-014
lhumerus -45.1606 2.12898 77.9343
lradius 31.208
lwrist -3.50598
lhand -26.5767 25.9692
lfingers 7.12502
lthumb -0.0112358 55.9489
rfemur 0.288092 29.629 34.6517
rtibia -9.27158
rfoot -24.66 -27.4076
rtoes 12.0442
lfemur -1.94875 -43.5681 -26.0925
ltibia -4.18407
lfoot -40.1607 -1.47806
ltoes -11.0154
998
root -36.0523 16.3 0.458559 -167.383 2.29982 -177.647
lowerback 4.31778 -0.172549 0.464213
upperback -10.1973 1.14809 2.95727
thorax -13.601 1.11726 2.71059
lowerneck -16.0091 0.499363 5.19244
upperneck 28.3969 0.850922 -0.431676
head 12.0097 1.47988 -0.798703
rclavicle 4.07509e-015 -9.54166e-015
rhumerus -55.8033 14.2098 -82.7242
rradius 33.2907
rwrist -15.5112
rhand -29.9625 -20.3756
rfingers 7.12502
rthumb -3.28126 -50.3301
lclavicle 4.07509e-015 -9.54166e-015
lhumerus -45.4883 2.49422 77.5756
lradius 31.1432
lwrist -3.67279
lhand -27.1538 26.8077
lfingers 7.12502
lthumb -0.568596 56.7866
rfemur 0.217647 29.472 34.5913
rtibia -9.36481
rfoot -24.9044 -27.2444
rtoes 12.8643
lfemur -2.15568 -43.6866 -26.0181
ltibia -4.24157
lfoot -40.1484 -1.52363
ltoes -10.0723
999
root -36.0579 16.3012 0.447016 -167.283 2.14191 -177.666
lowerback 4.13964 -0.197037 0.309243
upperback -10.2275 1.11027 2.98386
thorax -13.5258 1.12277 2.83248
lowerneck -16.2092 0.427039 4.86755
upperneck 28.6672 0.729766 -0.000526485
head 12.1521 1.46433 -0.594427
rclavicle 5.96354e-016 1.35174e-014
rhumerus -55.9574 14.97 -83.586
rradius 33.2977
rwrist -15.7133
rhand -29.7165 -19.9092
rfingers 7.12502
rthumb -3.04366 -49.8673
lclavicle 5.96354e-016 1.35174e-014
lhumerus -45.7625 2.85344 77.2776
lradius 31.0566
lwrist -3.52142
lhand -24.8706 25.284
lfingers 7.12502
lthumb 1.63655 55.2575
rfemur 0.211937 29.3167 34.4945
rtibia -9.55128
rfoot -24.9195 -27.2012
rtoes 13.06
lfemur -2.31189 -43.802 -25.9797
ltibia -4.17846
lfoot -40.197 -1.66197
ltoes -9.58802
1000
root -36.0649 16.2994 0.437015 -167.274 1.95249 -177.788
lowerback 4.03231 -0.255495 0.34014
upperback -10.2556 1.03125 2.92439
thorax -13.4844 1.08 2.76171
lowerneck -16.0528 0.435053 4.76032
upperneck 28.6902 0.836343 -0.118641
head 12.1306 1.49136 -0.604235
rclavicle -1.39149e-015 -1.59028e-015
rhumerus -56.2336 16.0998 -84.765
rradius 33.486
rwrist -16.182
rhand -29.6333 -19.7288
rfingers 7.12502
rthumb -2.96332 -49.6879
lclavicle -1.39149e-015 -1.59028e-015
lhumerus -46.0384 3.45004 76.8106
lradius 30.8489
lwrist -3.40385
lhand -20.5895 22.6591
lfingers 7.12502
lthumb 5.77069 52.5606
rfemur 0.392266 29.099 34.4012
rtibia -9.84453
rfoot -24.7174 -27.4138
rtoes 12.4576
lfemur -2.37598 -43.5508 -26.1386
ltibia -4.06494
lfoot -39.7747 -1.83164
ltoes -9.58171
1001
root -36.0756 16.2944 0.427244 -167.216 1.69571 -177.92
lowerback 3.91682 -0.279163 -0.169698
upperback -10.2474 0.958124 3.02737
thorax -13.4084 1.10762 3.17285
lowerneck -16.224 0.444239 5.10965
upperneck 28.7975 0.863617 -0.537161
head 12.2119 1.48932 -0.816371
rclavicle 4.37326e-015 -1.43125e-014
rhumerus -56.0257 16.0383 -84.8512
rradius 33.2309
rwrist -15.3594
rhand -29.5381 -19.2789
rfingers 7.12502
rthumb -2.87136 -49.2393
lclavicle 4.37326e-015 -1.43125e-014
lhumerus -46.0433 4.24145 76.3878
lradius 30.4703
lwrist -3.68968
lhand -18.0101 21.4502
lfingers 7.12502
lthumb 8.26059 51.2687
rfemur 0.628412 28.8484 34.3957
rtibia -10.2704
rfoot -24.2008 -27.9317
rtoes 11.0138
lfemur -2.53398 -43.4648 -26.2757
ltibia -3.9963
lfoot -39.3542 -2.22021
ltoes -8.96727
1002
root -36.084 16.2912 0.414966 -167.126 1.45941 -177.845
lowerback 3.77476 -0.302282 -0.292786
upperback -10.2893 0.947679 3.14428
thorax -13.3741 1.13331 3.37142
lowerneck -16.3416 0.373601 4.99107
upperneck 28.9614 0.797933 -0.506281
head 12.2983 1.46147 -0.79186
rclavicle -5.96354e-016 1.59028e-014
rhumerus -56.1046 16.4756 -85.2161
rradius 33.2299
rwrist -15.1161
rhand -29.3105 -19.0922
rfingers 7.12502
rthumb -2.65154 -49.0555
lclavicle -5.96354e-016 1.59028e-014
lhumerus -46.1237 4.97859 75.8951
lradius 30.0613
lwrist -4.09822
lhand -20.009 22.32
lfingers 7.12502
lthumb 6.33115 52.2054
rfemur 0.693187 28.6364 34.4488
rtibia -10.5428
rfoot -23.5991 -28.3754
rtoes 9.39985
lfemur -2.66515 -43.6019 -26.1622
ltibia -3.96293
lfoot -39.2359 -2.4144
ltoes -8.42381
1003
root -36.0887 16.2903 0.40351 -167.109 1.28203 -177.746
lowerback 3.66883 -0.324072 -0.23152
upperback -10.2891 0.937774 3.19615
thorax -13.3072 1.12897 3.39464
lowerneck -16.4362 0.29668 4.64255
upperneck 29.0535 0.705759 -0.217993
head 12.3496 1.42547 -0.635305
rclavicle -1.78906e-015 1.59028e-015
rhumerus -56.2241 17.1643 -85.8325
rradius 33.2752
rwrist -15.3476
rhand -28.9845 -19.1
rfingers 7.12502
rthumb -2.33676 -49.067
lclavicle -1.78906e-015 1.59028e-015
lhumerus -46.1441 5.52401 75.3998
lradius 29.6249
lwrist -4.3572
lhand -24.4804 24.9253
lfingers 7.12502
lthumb 2.0134 54.8956
rfemur 0.786053 28.4872 34.5927
rtibia -10.6538
rfoot -23.5583 -28.4587
rtoes 9.23681
lfemur -2.67705 -43.6611 -26.0694
ltibia -3.96087
lfoot -39.146 -2.45065
ltoes -8.20769
